<svg xmlns="http://www.w3.org/2000/svg" width="19.222" height="19.222" viewBox="0 0 19.222 19.222"><path d="M14.119 2.433a5.392 5.392 0 00-9.015 0 5.38 5.38 0 00-1.5 10.451v5.738a.6.6 0 00.6.6h10.812a.6.6 0 00.6-.6v-5.738a5.38 5.38 0 00-1.5-10.451zm.3 15.588H4.805v-1.2h9.611zm.452-6.144c-.014 0-.025.015-.04.019a.56.56 0 00-.112.054.6.6 0 00-.09.061.842.842 0 00-.141.179.648.648 0 00-.037.1.591.591 0 00-.024.119c0 .016-.008.029-.008.045v3.16h-1.8v-1.8a.6.6 0 00-1.2 0v1.8h-1.2v-3a.6.6 0 10-1.2 0v3h-1.2v-1.8a.6.6 0 00-1.2 0v1.8h-1.8v-3.16c0-.016-.008-.029-.01-.045a.558.558 0 00-.024-.119.657.657 0 00-.037-.1.5.5 0 00-.064-.094.523.523 0 00-.077-.085.411.411 0 00-.089-.061.565.565 0 00-.112-.054c-.014 0-.025-.016-.04-.019a4.194 4.194 0 01.148-8.16 5.324 5.324 0 00-.3 1.689v2.4a.6.6 0 101.2 0v-2.4a4.205 4.205 0 018.41 0v2.4a.6.6 0 001.2 0v-2.4a5.328 5.328 0 00-.3-1.7 4.2 4.2 0 01.151 8.171zm0 0" fill="#211e1f"/></svg>