<svg xmlns="http://www.w3.org/2000/svg" width="21.004" height="21.057" viewBox="0 0 21.004 21.057"><defs><clipPath id="a"><path data-name="Rectangle 335" fill="#211e1f" d="M0 0h21.004v21.057H0z"/></clipPath></defs><g data-name="Group 1498"><g data-name="Group 1497" clip-path="url(#a)"><path data-name="Path 922" d="M17.894 3.104a10.484 10.484 0 00-15.488 14.1 4.013 4.013 0 01-1.68 1.862.984.984 0 00.284 1.853 5.4 5.4 0 00.829.062 6.261 6.261 0 003.689-1.224A10.483 10.483 0 0017.895 3.103zm-.847 13.98A9.287 9.287 0 015.776 18.53a.6.6 0 00-.727.093.2.2 0 00-.049.035 5.119 5.119 0 01-3.162 1.126 5.871 5.871 0 001.8-2.39.611.611 0 00.031-.386.621.621 0 00-.146-.337 9.288 9.288 0 1113.528.412zm0 0" fill="#211e1f"/></g></g><path data-name="Path 923" d="M11.216 10.518a.736.736 0 11-.736-.736.736.736 0 01.736.736zm0 0" fill="#211e1f"/><path data-name="Path 924" d="M15.012 10.518a.736.736 0 11-.736-.736.736.736 0 01.736.736zm0 0" fill="#211e1f"/><path data-name="Path 925" d="M7.421 10.518a.736.736 0 11-.736-.736.736.736 0 01.736.736zm0 0" fill="#211e1f"/></svg>