<svg xmlns="http://www.w3.org/2000/svg" width="12.583" height="17.414" viewBox="0 0 12.583 17.414"><defs><clipPath id="a"><path data-name="Rectangle 339" fill="#211e1f" d="M0 0h12.583v17.414H0z"/></clipPath></defs><g data-name="Group 1513"><g data-name="Group 1512" clip-path="url(#a)"><path data-name="Path 950" d="M6.287.014A6.294 6.294 0 000 6.303c0 4.3 5.626 10.618 5.866 10.885a.566.566 0 00.843 0c.24-.267 5.866-6.583 5.866-10.885A6.294 6.294 0 006.288.016zm0 15.927c-1.893-2.249-5.155-6.687-5.155-9.639a5.155 5.155 0 1110.31 0c0 2.953-3.261 7.39-5.155 9.64zm0 0" fill="#211e1f"/></g></g><path data-name="Path 951" d="M6.287 3.137A3.163 3.163 0 109.45 6.3a3.167 3.167 0 00-3.163-3.163zm0 5.194A2.031 2.031 0 118.318 6.3a2.033 2.033 0 01-2.031 2.031zm0 0" fill="#211e1f"/></svg>