<svg xmlns="http://www.w3.org/2000/svg" width="17.276" height="17.823" viewBox="0 0 17.276 17.823"><defs><clipPath id="a"><path data-name="Rectangle 338" fill="#fff" d="M0 0h17.276v17.823H0z"/></clipPath></defs><g data-name="Group 1507"><g data-name="Group 1506" clip-path="url(#a)"><path data-name="Path 933" d="M16.752 12.089a2.207 2.207 0 00.516-1.475 2.266 2.266 0 00-.483-1.278 1.986 1.986 0 00-.472-2.285 4.1 4.1 0 00-2.984-.714 11.655 11.655 0 00-1.828.234c-.186.033-.383.074-.583.119a6.486 6.486 0 01.464-2.159c.52-1.583.491-2.794-.1-3.6A2.362 2.362 0 009.391.013a.933.933 0 00-.717.327 2.5 2.5 0 00-.312 1.772c-.49 1.315-1.865 4.54-3.028 5.436a.4.4 0 00-.059.052 3.988 3.988 0 00-.728 1.092 1.534 1.534 0 00-.736-.186H1.545A1.547 1.547 0 000 10.05v6.037a1.547 1.547 0 001.546 1.546h2.266a1.543 1.543 0 00.892-.282l.873.1a37.442 37.442 0 004.953.271c.442.033.858.052 1.245.052a8.329 8.329 0 001.728-.156 3.23 3.23 0 002.307-1.434 2.274 2.274 0 00.253-1.423 2.37 2.37 0 00.843-1.928 2.513 2.513 0 00-.152-.747zm-15.207 4.54a.543.543 0 01-.542-.542v-6.041a.543.543 0 01.542-.542h2.266a.543.543 0 01.543.542v6.035a.543.543 0 01-.543.543H1.545zm14.256-4.975a.5.5 0 00-.067.606 1.547 1.547 0 01.171.62 1.487 1.487 0 01-.7 1.286.506.506 0 00-.171.572 1.313 1.313 0 01-.1.959 2.325 2.325 0 01-1.642.944 9.78 9.78 0 01-2.708.082h-.052a36.682 36.682 0 01-4.83-.264l-.375-.045a1.573 1.573 0 00.033-.327v-6.041a1.57 1.57 0 00-.071-.461 3.107 3.107 0 01.691-1.274c1.668-1.323 3.3-5.785 3.37-5.978a.472.472 0 00.022-.249 2.318 2.318 0 01.048-1.077 1.333 1.333 0 011.048.5 3.164 3.164 0 01-.045 2.7c-.624 1.891-.676 2.887-.182 3.325a.81.81 0 00.81.145c.227-.052.442-.1.646-.13l.048-.011c1.141-.249 3.184-.4 3.894.245a1.069 1.069 0 01.126 1.356.5.5 0 00.089.647 1.406 1.406 0 01.412.866 1.379 1.379 0 01-.464 1zm0 0" fill="#fff"/></g></g></svg>