<svg xmlns="http://www.w3.org/2000/svg" width="18.104" height="18.196" viewBox="0 0 18.104 18.196"><defs><clipPath id="a"><path data-name="Rectangle 337" fill="#211e1f" d="M0 0h18.104v18.196H0z"/></clipPath></defs><g data-name="Group 1503"><g data-name="Group 1502" clip-path="url(#a)" fill="#211e1f"><path data-name="Path 928" d="M14.301 11.259a1.782 1.782 0 00-1.292-.592 1.841 1.841 0 00-1.307.589l-1.208 1.2c-.1-.054-.2-.1-.294-.153a5.827 5.827 0 01-.378-.2 13.127 13.127 0 01-3.145-2.866 7.748 7.748 0 01-1.032-1.628c.313-.287.6-.585.887-.872l.321-.325a1.754 1.754 0 000-2.645L5.809 2.724c-.118-.118-.241-.241-.355-.363-.229-.237-.47-.482-.718-.711a1.81 1.81 0 00-1.28-.562 1.872 1.872 0 00-1.3.562l-.008.008-1.3 1.311a2.8 2.8 0 00-.829 1.777 6.7 6.7 0 00.489 2.836 16.454 16.454 0 002.924 4.877 17.985 17.985 0 005.989 4.689 9.329 9.329 0 003.363.994c.08 0 .164.008.241.008a2.879 2.879 0 002.205-.948c0-.008.011-.011.015-.019a8.654 8.654 0 01.669-.692c.164-.157.332-.321.5-.493a1.906 1.906 0 00.577-1.322 1.837 1.837 0 00-.588-1.311zm1.368 4.024c-.149.161-.3.306-.466.466a10.051 10.051 0 00-.738.764 1.843 1.843 0 01-1.437.608h-.176a8.291 8.291 0 01-2.981-.894 16.978 16.978 0 01-5.641-4.418 15.518 15.518 0 01-2.752-4.583 5.455 5.455 0 01-.428-2.392 1.754 1.754 0 01.527-1.135l1.3-1.3a.869.869 0 01.581-.271.818.818 0 01.558.268l.011.011c.233.218.455.443.688.684l.363.371 1.043 1.043a.729.729 0 010 1.185c-.111.111-.218.222-.329.329-.321.329-.627.634-.959.933-.008.008-.015.012-.019.019a.78.78 0 00-.2.868l.012.035A8.376 8.376 0 005.86 9.888a14.026 14.026 0 003.394 3.088 5.162 5.162 0 00.47.256c.138.069.268.134.378.2l.046.027a.829.829 0 00.378.1.817.817 0 00.581-.264l1.307-1.307a.865.865 0 01.587-.29.778.778 0 01.55.279l2.113 2.113a.756.756 0 010 1.2zm0 0"/><path data-name="Path 929" d="M9.77 4.35a4.919 4.919 0 014.005 4.005.513.513 0 00.508.428.7.7 0 00.088-.008.516.516 0 00.424-.6 5.948 5.948 0 00-4.846-4.846.519.519 0 00-.6.42.51.51 0 00.417.6zm0 0"/><path data-name="Path 930" d="M18.074 8.03a9.793 9.793 0 00-7.98-7.98.515.515 0 10-.168 1.017 8.748 8.748 0 017.132 7.132.513.513 0 00.508.428.664.664 0 00.088-.008.506.506 0 00.42-.589zm0 0"/></g></g></svg>