<svg xmlns="http://www.w3.org/2000/svg" width="15.759" height="15.755" viewBox="0 0 15.759 15.755"><path d="M7.881 3.838a4.033 4.033 0 00-4.039 4.04 4.033 4.033 0 004.039 4.039 4.033 4.033 0 004.039-4.039 4.033 4.033 0 00-4.039-4.04zm0 6.666a2.631 2.631 0 01-2.626-2.626 2.629 2.629 0 012.626-2.627 2.629 2.629 0 012.622 2.627 2.631 2.631 0 01-2.622 2.626zm5.147-6.831a.942.942 0 00-.942-.942.942.942 0 00-.942.942.94.94 0 00.942.942.94.94 0 00.942-.942zm2.675.958a4.663 4.663 0 00-1.273-3.3 4.693 4.693 0 00-3.3-1.273c-1.3-.074-5.2-.074-6.5 0a4.686 4.686 0 00-3.3 1.269 4.678 4.678 0 00-1.273 3.3c-.074 1.3-.074 5.2 0 6.5a4.663 4.663 0 001.271 3.304 4.7 4.7 0 003.3 1.273c1.3.074 5.2.074 6.5 0a4.663 4.663 0 003.303-1.273 4.693 4.693 0 001.273-3.3c.074-1.306.074-5.2-.001-6.5zm-1.68 7.891a2.659 2.659 0 01-1.5 1.5 17.363 17.363 0 01-4.642.309 17.5 17.5 0 01-4.644-.312 2.659 2.659 0 01-1.5-1.5 17.363 17.363 0 01-.314-4.641 17.5 17.5 0 01.317-4.647 2.659 2.659 0 011.5-1.5 17.363 17.363 0 014.644-.316 17.5 17.5 0 014.644.316 2.659 2.659 0 011.5 1.5 17.363 17.363 0 01.316 4.644c-.004 1.149.091 3.613-.321 4.647z" fill="#211e1f"/></svg>