<svg xmlns="http://www.w3.org/2000/svg" width="16" height="20.151" viewBox="0 0 16 20.151"><g fill="#fff"><path data-name="Path 934" d="M15.444 5.238H3.171a2.067 2.067 0 010-4.134h12.277a.552.552 0 000-1.1H3.171A3.176 3.176 0 000 3.171V16.98a3.176 3.176 0 003.171 3.171h12.277a.551.551 0 00.552-.552V5.79a.558.558 0 00-.556-.552zm-.552 13.809H3.171a2.07 2.07 0 01-2.067-2.067V5.58a3.166 3.166 0 002.067.768h11.721z"/><path data-name="Path 935" d="M3.345 2.669a.552.552 0 100 1.1h10.368a.552.552 0 100-1.1z"/><path data-name="Path 936" d="M4.902 10.075h7.255a.552.552 0 100-1.1H4.902a.552.552 0 100 1.1z"/><path data-name="Path 937" d="M4.902 12.312h7.255a.552.552 0 100-1.1H4.902a.552.552 0 100 1.1z"/></g></svg>