<svg xmlns="http://www.w3.org/2000/svg" width="13.073" height="17.217" viewBox="0 0 13.073 17.217"><defs><clipPath id="a"><path data-name="Rectangle 340" fill="#211e1f" d="M0 0h13.073v17.216H0z"/></clipPath></defs><g data-name="Group 1517"><g data-name="Group 1516" clip-path="url(#a)"><path data-name="Path 953" d="M12.501 13.067h-.648l.6-1.5a1.631 1.631 0 00.116-.6v-4.2a1.644 1.644 0 00-1.42-1.624h-.006L6.791 4.6V1.761a1.742 1.742 0 00-3.483 0v5.916l-.824-.528A1.609 1.609 0 00.543 9.702l3.319 2.973.159.4h-.3a.571.571 0 00-.571.571v2.958a.571.571 0 00.571.571h8.78a.571.571 0 00.571-.571v-2.967a.571.571 0 00-.571-.571zm-11.2-4.222a.467.467 0 01.564-.741l1.7 1.091a.571.571 0 00.879-.481v-6.96a.6.6 0 011.2 0v3.343a.571.571 0 00.5.566l4.849.605a.5.5 0 01.428.492v4.2a.5.5 0 01-.035.183l-.764 1.922h-5.38l-.375-.945a.571.571 0 00-.15-.215zm10.629 7.19H4.288v-1.831h7.642zm0 0" fill="#211e1f"/></g></g></svg>