<svg xmlns="http://www.w3.org/2000/svg" width="17.791" height="17.833" viewBox="0 0 17.791 17.833"><defs><clipPath id="a"><path data-name="Rectangle 341" fill="#fff" d="M0 0h17.791v17.833H0z"/></clipPath></defs><g data-name="Group 1519"><g data-name="Group 1518" clip-path="url(#a)"><path data-name="Path 966" d="M17.738 8.703l-2.451-5.917A.521.521 0 0015 2.503L9.083.052a.52.52 0 00-.4 0L2.772 2.503a.522.522 0 00-.282.282L.04 8.703a.521.521 0 00.481.72h1.153v7.847a.521.521 0 00.521.521h13.388a.521.521 0 00.521-.521V9.423h1.153a.521.521 0 00.481-.72zm-9.586 5.22l-2.09 2.09v-4.18zM6.8 11.097h4.18l-2.09 2.09zm0 5.653l2.09-2.09 2.09 2.09zm4.916-.736l-2.09-2.09 2.09-2.09zm3.868-7.631a.521.521 0 00-.521.521v7.847h-2.306v-6.173a.521.521 0 00-.521-.521H5.542a.521.521 0 00-.521.521v6.173H2.715V8.903a.521.521 0 00-.521-.521H1.3l2.07-5 5.518-2.286 5.518 2.286 2.07 5zm0 0" fill="#fff"/></g></g><path data-name="Path 967" d="M10.562 3.361H7.215a.521.521 0 00-.521.521v3.351a.521.521 0 00.521.521h3.347a.521.521 0 00.521-.521V3.886a.521.521 0 00-.521-.521zm-.521 3.347H7.736V4.403h2.306zm0 0" fill="#fff"/></svg>