<svg xmlns="http://www.w3.org/2000/svg" width="17.347" height="19.224" viewBox="0 0 17.347 19.224"><path data-name="Path 952" d="M17.347 10.51a3.573 3.573 0 00-2.7-3.461V5.985a5.98 5.98 0 10-11.959 0v1.069a3.567 3.567 0 00.882 7.023h1.2a.563.563 0 00.563-.563V7.51a.563.563 0 00-.563-.563h-.957v-.958a4.853 4.853 0 119.706 0v.958h-.939a.563.563 0 00-.563.563v6.008a.563.563 0 00.563.563h.939v.852a1.91 1.91 0 01-1.908 1.908h-.67a1.767 1.767 0 00-1.666-1.183h-1.2a1.784 1.784 0 000 3.567h1.2a1.747 1.747 0 001.686-1.258h.649a3.038 3.038 0 003.034-3.034v-.958a3.573 3.573 0 002.7-3.461zM4.206 12.951h-.638a2.441 2.441 0 010-4.881h.638zm5.069 5.144h-1.2a.657.657 0 010-1.314h1.2a.657.657 0 010 1.314zm4.506-5.144h-.638V8.07h.638a2.441 2.441 0 110 4.881zm0 0" fill="#211e1f"/></svg>