<svg xmlns="http://www.w3.org/2000/svg" width="18" height="13.698" viewBox="0 0 18 13.698"><g fill="#211e1f"><path data-name="Path 931" d="M15.8 0H2.2A2.2 2.2 0 000 2.2v9.3a2.2 2.2 0 002.2 2.2h13.6a2.2 2.2 0 002.2-2.2V2.208a2.2 2.2 0 00-2.2-2.2zM17 11.5a1.2 1.2 0 01-1.2 1.2H2.2A1.2 1.2 0 011 11.5V2.208a1.2 1.2 0 011.2-1.2h13.6a1.2 1.2 0 011.2 1.2V11.5zm0 0"/><path data-name="Path 932" d="M11.352 6.734l4.4-3.948a.503.503 0 10-.674-.748L9.007 7.487 7.823 6.429s-.007-.007-.007-.011a.766.766 0 00-.082-.071L2.915 2.034a.504.504 0 00-.671.752l4.455 3.981-4.436 4.153a.5.5 0 00-.022.711.514.514 0 00.369.16.5.5 0 00.343-.134l4.5-4.212 1.222 1.091a.5.5 0 00.671 0l1.255-1.125 4.477 4.253a.5.5 0 00.711-.019.5.5 0 00-.019-.711zm0 0"/></g></svg>