<svg xmlns="http://www.w3.org/2000/svg" width="17.747" height="17.751" viewBox="0 0 17.747 17.751"><g fill="#211e1f"><path data-name="Path 942" d="M13.942 1.01a2.962 2.962 0 00-4.7.33 2.875 2.875 0 00-.132.2c-.041-.065-.085-.13-.132-.2a2.962 2.962 0 00-4.7-.33 3.466 3.466 0 00-.849 2.315 4.19 4.19 0 001.165 2.771 25.13 25.13 0 002.84 2.629c.426.359.866.731 1.333 1.136a.52.52 0 00.681 0c.468-.405.908-.777 1.333-1.136.74-.624 1.379-1.164 1.933-1.687a5.255 5.255 0 002.072-3.713 3.466 3.466 0 00-.849-2.315zm-1.937 5.272a49.42 49.42 0 01-1.89 1.648c-.324.273-.656.554-1 .851-.347-.3-.679-.578-1-.851-2.267-1.914-3.636-3.069-3.636-4.6a2.13 2.13 0 012.06-2.28 1.913 1.913 0 011.586.878 3.5 3.5 0 01.493.977.52.52 0 001 0c.005-.019.531-1.855 2.079-1.855a2.13 2.13 0 012.06 2.28c0 .942-.49 1.771-1.746 2.956zm0 0"/><path data-name="Path 943" d="M16.187 10.472a1.565 1.565 0 00-1.141.5l-1.528 1.641a1.562 1.562 0 00-1.49-1.1h-2.4a1.381 1.381 0 01-.913-.344 3.647 3.647 0 00-4.769-.033 1.559 1.559 0 00-1.275-.662H.52a.52.52 0 00-.52.52v6.239a.52.52 0 00.52.52h2.149a1.556 1.556 0 001.172-.533l.308.087a11.958 11.958 0 003.236.446h4.643a3.657 3.657 0 002.912-1.456l2.5-3.328a1.56 1.56 0 00-1.249-2.495zm-13 5.719a.521.521 0 01-.52.52H1.04v-5.2h1.629a.52.52 0 01.52.52zm13.415-3.848l-2.5 3.328a2.612 2.612 0 01-2.08 1.04H7.385a10.914 10.914 0 01-2.955-.407l-.2-.057v-3.979l.362-.319a2.605 2.605 0 013.435 0 2.42 2.42 0 001.6.6h2.4a.52.52 0 110 1.04h-3.7a.52.52 0 100 1.04h4.044a1.565 1.565 0 001.141-.5l2.289-2.457a.514.514 0 01.381-.166.52.52 0 01.52.52.515.515 0 01-.1.311zm0 0"/></g></svg>