<svg xmlns="http://www.w3.org/2000/svg" width="13.799" height="15.218" viewBox="0 0 13.799 15.218"><g fill="#211e1f"><path data-name="Path 944" d="M1.451 0a1.451 1.451 0 101.451 1.451A1.453 1.453 0 001.451 0zm0 0"/><path data-name="Path 945" d="M13.133.785h-7.92a.666.666 0 100 1.331h7.921a.666.666 0 100-1.331zm0 0"/><path data-name="Path 946" d="M1.451 6.158A1.451 1.451 0 102.9 7.609a1.453 1.453 0 00-1.451-1.451zm0 0"/><path data-name="Path 947" d="M13.133 6.943h-7.92a.666.666 0 100 1.331h7.921a.666.666 0 000-1.331zm0 0"/><path data-name="Path 948" d="M1.451 12.312a1.451 1.451 0 101.451 1.451 1.453 1.453 0 00-1.451-1.451zm0 0"/><path data-name="Path 949" d="M13.133 13.1h-7.92a.666.666 0 000 1.331h7.921a.666.666 0 000-1.331zm0 0"/></g></svg>