<svg xmlns="http://www.w3.org/2000/svg" width="17.506" height="17.506" viewBox="0 0 17.506 17.506"><g fill="#211e1f"><path data-name="Path 954" d="M8.544 3.106h2.4a.513.513 0 000-1.026h-2.4a.513.513 0 100 1.026zm0 0"/><path data-name="Path 955" d="M8.544 5.163h4.76a.513.513 0 100-1.026h-4.76a.513.513 0 100 1.026zm0 0"/><path data-name="Path 956" d="M16 6.774V.948A.949.949 0 0015.052 0h-8.26a.949.949 0 00-.948.948v5.826a1.879 1.879 0 00-.992.554 1.875 1.875 0 00-1.368-.592H1.877A1.883 1.883 0 000 8.616v7.009a1.883 1.883 0 001.881 1.881h1.607a1.875 1.875 0 001.368-.592 1.875 1.875 0 001.368.592h9.4a1.883 1.883 0 001.881-1.881V8.616a1.884 1.884 0 00-1.5-1.843zm-1.026-5.748v5.71h-8.1v-5.71zM4.34 15.626a.856.856 0 01-.855.855H1.878a.856.856 0 01-.855-.855V8.617a.856.856 0 01.855-.855h1.607a.856.856 0 01.855.855zm12.138 0a.856.856 0 01-.855.855h-9.4a.856.856 0 01-.855-.855V8.617a.856.856 0 01.855-.855h9.4a.856.856 0 01.855.855zm0 0"/><path data-name="Path 957" d="M8.531 9.557h-.684a.513.513 0 100 1.026h.684a.513.513 0 100-1.026zm0 0"/><path data-name="Path 958" d="M11.266 9.557h-.684a.513.513 0 000 1.026h.684a.513.513 0 100-1.026zm0 0"/><path data-name="Path 959" d="M14.002 9.557h-.684a.513.513 0 100 1.026h.684a.513.513 0 000-1.026zm0 0"/><path data-name="Path 960" d="M8.531 11.608h-.684a.513.513 0 100 1.026h.684a.513.513 0 100-1.026zm0 0"/><path data-name="Path 961" d="M11.266 11.608h-.684a.513.513 0 100 1.026h.684a.513.513 0 100-1.026zm0 0"/><path data-name="Path 962" d="M14.002 11.608h-.684a.513.513 0 100 1.026h.684a.513.513 0 100-1.026zm0 0"/><path data-name="Path 963" d="M8.531 13.659h-.684a.513.513 0 100 1.026h.684a.513.513 0 100-1.026zm0 0"/><path data-name="Path 964" d="M11.266 13.659h-.684a.513.513 0 100 1.026h.684a.513.513 0 100-1.026zm0 0"/><path data-name="Path 965" d="M14.002 13.659h-.684a.513.513 0 100 1.026h.684a.513.513 0 100-1.026zm0 0"/></g></svg>