<svg xmlns="http://www.w3.org/2000/svg" width="18" height="14.619" viewBox="0 0 18 14.619"><path d="M16.15 3.644A7.93 7.93 0 0018 1.736a7.4 7.4 0 01-2.124.571A3.679 3.679 0 0017.5.275a7.263 7.263 0 01-2.341.891 3.68 3.68 0 00-2.7-1.165A3.687 3.687 0 008.77 3.69a4.164 4.164 0 00.091.845A10.486 10.486 0 011.254.675a3.661 3.661 0 00-.5 1.862A3.686 3.686 0 002.4 5.608 3.715 3.715 0 01.731 5.14v.046a3.69 3.69 0 002.958 3.62 3.9 3.9 0 01-.971.126 4.65 4.65 0 01-.7-.057 3.7 3.7 0 003.453 2.558 7.388 7.388 0 01-4.58 1.576A7.635 7.635 0 010 12.96a10.425 10.425 0 005.665 1.66 10.424 10.424 0 0010.5-10.5c-.004-.16-.004-.316-.015-.476z" fill="#211e1f"/></svg>