<svg xmlns="http://www.w3.org/2000/svg" width="15.165" height="19.061" viewBox="0 0 15.165 19.061"><path d="M7.583 19.061a7.619 7.619 0 01-5.35-1.926 7.841 7.841 0 01-2.232-5.9c0-5.2 3.312-11.239 7.583-11.239s7.583 6.041 7.583 11.239a7.841 7.841 0 01-2.232 5.9 7.619 7.619 0 01-5.352 1.926zm0-17.994a4.106 4.106 0 00-2.429.871 8.428 8.428 0 00-2.1 2.366 13.708 13.708 0 00-1.984 6.934 6.81 6.81 0 001.9 5.119 7.337 7.337 0 009.237 0 6.81 6.81 0 001.9-5.119 13.708 13.708 0 00-1.984-6.934 8.428 8.428 0 00-2.1-2.366 4.106 4.106 0 00-2.44-.871z" fill="#FFC416"/></svg>